<?xml version="1.0" encoding="iso-8859-1"?>
<!-- Generator: Adobe Illustrator 18.0.0, SVG Export Plug-In . SVG Version: 6.00 Build 0)  -->
<!DOCTYPE svg PUBLIC "-//W3C//DTD SVG 1.1//EN" "http://www.w3.org/Graphics/SVG/1.1/DTD/svg11.dtd">
<svg version="1.1" id="Capa_1" xmlns="http://www.w3.org/2000/svg" xmlns:xlink="http://www.w3.org/1999/xlink" x="0px" y="0px"
	 viewBox="0 0 237 237" style="enable-background:new 0 0 237 237; fill:#757575;" xml:space="preserve">
<path d="M118.5,0C86.325,0,60.149,26.177,60.149,58.352V90H27.917v147h181.166V90h-32.232V58.352C176.851,26.177,150.675,0,118.5,0z
	 M75.149,58.352C75.149,34.447,94.596,15,118.5,15s43.351,19.447,43.351,43.352V90H75.149V58.352z M194.083,105v117H42.917V105
	H194.083z M118.5,211.666c11.855,0,21.5-9.645,21.5-21.5v-15.334c0-11.855-9.645-21.5-21.5-21.5s-21.5,9.645-21.5,21.5v15.334
	C97,202.021,106.645,211.666,118.5,211.666z M112,174.832c0-3.584,2.916-6.5,6.5-6.5s6.5,2.916,6.5,6.5v15.334
	c0,3.584-2.916,6.5-6.5,6.5s-6.5-2.916-6.5-6.5V174.832z"/>
<g>
</g>
<g>
</g>
<g>
</g>
<g>
</g>
<g>
</g>
<g>
</g>
<g>
</g>
<g>
</g>
<g>
</g>
<g>
</g>
<g>
</g>
<g>
</g>
<g>
</g>
<g>
</g>
<g>
</g>
</svg>
